<?xml version="1.0" encoding="UTF-8"?>
<svg width="128px" height="128px" viewBox="0 0 128 128" version="1.1" xmlns="http://www.w3.org/2000/svg" xmlns:xlink="http://www.w3.org/1999/xlink">
    <!-- Generator: Sketch 56.1 (81669) - https://sketch.com -->
    <title>rice_gray</title>
    <desc>Created with Sketch.</desc>
    <defs>
        <polygon id="path-1" points="0 0.594 126.441788 0.594 126.441788 120.266667 0 120.266667"></polygon>
    </defs>
    <g id="rice_gray" stroke="none" stroke-width="1" fill="none" fill-rule="evenodd">
        <g id="Group-6" transform="translate(1.066667, 4.000000)">
            <g id="Group-3" transform="translate(0.000000, 0.139333)">
                <mask id="mask-2" fill="white">
                    <use xlink:href="#path-1"></use>
                </mask>
                <g id="Clip-2"></g>
                <path d="M11.0342467,93.99874 C11.10098,104.454607 20.2559133,111.43594 29.5318467,108.611873 C73.04638,95.3620067 101.480647,66.94534 114.789913,23.4234733 C115.56138,20.89934 115.642047,18.3730067 114.98278,15.8378733 C113.709713,10.9406733 112.45278,10.4464067 108.179647,13.03874 C97.9049133,19.2698733 87.2261133,20.8076733 76.0728467,15.5738733 C74.09798,14.6462067 72.60858,15.26734 70.9336467,16.1378067 C40.00238,32.21174 21.7746467,58.3858733 11.5021133,90.87474 C11.1046467,92.1338733 11.1017133,93.51694 11.0342467,93.99874 M-8.94749475e-05,94.5164733 C0.0606466667,92.4404067 0.14058,90.3760733 0.759513333,88.35794 C11.8680467,52.11734 32.4571133,23.4792067 66.7925133,5.80514 C71.2350467,3.51860667 75.6504467,3.13947333 80.1355133,5.34827333 C87.7834467,9.11394 95.03978,8.02420667 102.096647,3.81560667 C114.08738,-3.33586 124.452313,1.75934 126.22038,15.7242067 C126.716113,19.6416733 126.381713,23.5012067 125.193713,27.30794 C110.627513,73.95014 79.96978,104.497873 33.3701133,119.03694 C16.49098,124.302273 -0.115353333,112.013807 -8.94749475e-05,94.5164733" id="Fill-1" fill="#838383" mask="url(#mask-2)"></path>
            </g>
            <path d="M91.3074067,34.2521667 C84.16254,33.9126333 78.7124067,30.7497667 74.84994,24.8251667 C74.31314,24.0009 73.68834,22.9823 74.3248733,22.1221 C75.0296067,21.1709667 76.1574733,21.8471 77.0066733,22.1507 C79.41054,23.0094333 81.76454,24.0075 84.1420067,24.9403 C90.2924733,27.3529667 95.75434,26.3783667 100.71754,21.9065 C102.124073,20.6378333 103.950073,17.8247667 105.606673,19.2107667 C107.43414,20.7390333 105.641873,23.5154333 104.62914,25.5174333 C101.874007,30.9661 97.35154,33.8334333 91.3074067,34.2521667" id="Fill-4" fill="#838383"></path>
        </g>
    </g>
</svg>